<?xml version="1.0" encoding="utf-8"?>
<!-- Svg Vector Icons : http://www.onlinewebfonts.com/icon -->
<!DOCTYPE svg PUBLIC "-//W3C//DTD SVG 1.1//EN" "http://www.w3.org/Graphics/SVG/1.1/DTD/svg11.dtd">
<svg version="1.1" xmlns="http://www.w3.org/2000/svg" xmlns:xlink="http://www.w3.org/1999/xlink" x="0px" y="0px" viewBox="0 0 1000 1000" enable-background="new 0 0 1000 1000" xml:space="preserve">
<metadata> Svg Vector Icons : http://www.onlinewebfonts.com/icon </metadata>
<g><g transform="translate(0.000000,512.000000) scale(0.100000,-0.100000)"><path d="M4837.3,5009.4c-99.6-21-277.6-93.8-363.8-149.3c-195.3-124.4-381-358-444.2-557.2l-32.5-103.4h-340.8c-457.6,0-494-19.1-494-277.6v-124.4h-853.9h-853.9l-65.1-65.1l-65.1-65.1V-491.3v-4158.5l65.1-65.1l65.1-65.1h3543.9H8542l61.3,55.5l63.2,55.5l5.7,4168.1l3.8,4168.1l-65.1,65.1l-65.1,65.1h-853.9H6838v124.4c0,143.6-32.6,222.1-105.3,254.6c-32.5,15.3-166.6,23-390.6,23h-338.9l-32.6,103.4c-97.6,310.2-417.4,603.1-752.4,691.2C5114.9,5020.8,4925.3,5028.5,4837.3,5009.4z M5264.2,4563.3c145.5-65.1,271.9-195.3,300.6-312.1l13.4-51.7H5000h-578.2l11.5,49.8c40.2,158.9,222.1,310.2,419.3,352.3C4965.5,4624.5,5164.6,4607.3,5264.2,4563.3z M6436,3596.4v-201H5000h-1436v201v201h1436h1436V3596.4z M3162,3270.9c0-153.2,36.4-231.7,124.4-270c97.7-40.2,3329.5-40.2,3427.1,0c88.1,38.3,124.5,116.8,124.5,270v124.4l714.1-3.8l712.2-5.7V-491.3v-3877.1H5000H1735.6l-5.7,3857.9c-1.9,2121.4,0,3869.4,5.7,3882.8c5.7,17.2,168.5,23,718,23H3162V3270.9z"/><path d="M6560.4,915.9c-30.6-13.4-578.2-547.6-1215.8-1185.1L4186.3-1429.5l-363.8,363.8c-361.9,358-367.6,363.8-448,363.8c-68.9,0-93.8-11.5-149.3-67c-61.3-61.3-67-74.7-57.4-147.4c9.6-72.8,44-112.9,457.6-526.5c465.2-465.2,516.9-503.5,620.3-465.2c63.2,23,2521.5,2467.9,2565.6,2550.3C6899.3,806.8,6730.8,992.5,6560.4,915.9z"/></g></g>
</svg>